<svg xmlns="http://www.w3.org/2000/svg" xmlns:xlink="http://www.w3.org/1999/xlink" version="1.1" x="0px" y="0px" viewBox="0 0 100 95" style="enable-background:new 0 0 100 100;" xml:space="preserve"><style type="text/css">
	.st0{fill:none;}
	.st1{fill:#FFFFFF;}
</style><path d="M50,12.3c-14.1,0-25.5,11.4-25.5,25.6c0,3.7,0.8,7.1,2.1,10.3l22,42.7c0.6,1.2,2.2,1.2,2.8,0l22-42.7  c1.4-3.1,2.1-6.6,2.1-10.3C75.5,23.7,64.1,12.3,50,12.3z M50,58.4c-11.4,0-20.7-9.3-20.7-20.7C29.3,26.3,38.6,17,50,17  c11.4,0,20.7,9.3,20.7,20.7C70.7,49.1,61.4,58.4,50,58.4z"/><polygon points="38.4,48.9 46.9,48.9 46.9,39.5 53.1,39.5 53.1,48.9 61.6,48.9 61.6,34.9 38.4,34.9 "/><polygon points="57.7,23.8 54.9,23.8 54.9,26.2 57.7,28.4 "/><polygon points="50,23.8 37.3,33.5 62.7,33.5 "/></svg>