<svg xmlns="http://www.w3.org/2000/svg" xmlns:xlink="http://www.w3.org/1999/xlink" version="1.1" x="0px" y="0px" viewBox="0 0 100 95" style="enable-background:new 0 0 100 100;" xml:space="preserve"><style type="text/css">
	.st0{fill:none;stroke:#000000;stroke-width:6;stroke-linejoin:round;stroke-miterlimit:10;}
	.st1{fill:none;stroke:#000000;stroke-miterlimit:10;}
	.st2{fill:#FFFFFF;stroke:#000000;stroke-miterlimit:10;}
	.st3{fill:#FFFFFF;}
	.st4{fill:none;stroke:#FFFFFF;stroke-width:2;stroke-linecap:round;stroke-miterlimit:10;}
	.st5{fill:none;}
	.st6{fill:none;stroke:#000000;stroke-width:2;stroke-miterlimit:10;}
	.st7{fill:none;stroke:#000000;stroke-width:4;stroke-miterlimit:10;}
	.st8{fill:none;stroke:#000000;stroke-width:4;stroke-linecap:round;stroke-miterlimit:10;}
	.st9{fill:none;stroke:#000000;stroke-width:1.5;stroke-linejoin:round;stroke-miterlimit:10;}
	.st10{fill:none;stroke:#000000;stroke-width:1.5;stroke-miterlimit:10;}
	.st11{fill:none;stroke:#231F20;stroke-width:2;stroke-miterlimit:10;}
</style><g><path d="M50,12.3c-14.1,0-25.5,11.4-25.5,25.6c0,3.7,0.8,7.1,2.1,10.3l22,42.7c0.6,1.2,2.2,1.2,2.8,0l22-42.7   c1.4-3.1,2.1-6.6,2.1-10.3C75.5,23.7,64.1,12.3,50,12.3z M50,58.4c-11.4,0-20.7-9.3-20.7-20.7C29.3,26.3,38.6,17,50,17   c11.4,0,20.7,9.3,20.7,20.7C70.7,49.1,61.4,58.4,50,58.4z"/><path d="M60.1,48.3c-2.2,0-3.2-0.8-4.4-1.8c-1.3-1-2.8-2.2-5.7-2.2c-2.9,0-4.4,1.2-5.7,2.2c-1.2,1-2.2,1.8-4.4,1.8   c-2.2,0-3.2-0.8-4.4-1.8c-0.7-0.6-1.5-1.2-2.6-1.6c0.6,1.4,1.4,2.7,2.2,3.9c1.1,0.8,2.5,1.5,4.8,1.5c2.9,0,4.4-1.2,5.7-2.2   c1.2-1,2.2-1.8,4.4-1.8c2.2,0,3.2,0.8,4.4,1.8c1.3,1,2.8,2.2,5.7,2.2c2.3,0,3.6-0.7,4.8-1.5c0.9-1.2,1.7-2.5,2.2-3.9   c-1.1,0.4-1.9,1.1-2.6,1.6C63.3,47.5,62.3,48.3,60.1,48.3z"/><path d="M50,49.4c-2.9,0-4.4,1.2-5.7,2.2c-1.2,0.9-2.2,1.7-4.2,1.8c0.9,0.6,1.8,1.1,2.8,1.5c1.1-0.4,1.9-1.1,2.6-1.7   c1.2-1,2.2-1.8,4.4-1.8c2.2,0,3.2,0.8,4.4,1.8c0.7,0.6,1.6,1.2,2.6,1.7c1-0.4,1.9-0.9,2.8-1.5c-2-0.1-3-0.9-4.2-1.8   C54.3,50.6,52.9,49.4,50,49.4z"/><path d="M45.7,55.7c1.4,0.3,2.8,0.5,4.3,0.5c1.5,0,2.9-0.2,4.3-0.5c-1.1-0.7-2.4-1.2-4.3-1.2C48,54.5,46.7,55.1,45.7,55.7z"/><path d="M60.1,43.2c-1,0-1.8-0.2-2.5-0.5l5.2-5.9c0.2-0.2,0.3-0.5,0.3-0.7c0-0.3,0-0.5-0.1-0.8l-3.8-2.5v-7c0-1.1-0.9-2-2-2H51   v-4.1h-2v4.1h-6.2c-1.1,0-2,0.9-2,2v7L37,35.3c-0.1,0.2-0.2,0.5-0.1,0.8c0,0.3,0.1,0.5,0.3,0.7l5.2,5.9c-0.7,0.3-1.4,0.5-2.5,0.5   c-2.2,0-3.2-0.8-4.4-1.8c-1-0.8-2.2-1.7-4-2.1c0.1,0.7,0.2,1.4,0.3,2.1c1,0.3,1.6,0.9,2.4,1.5c1.3,1,2.8,2.2,5.7,2.2   c1.7,0,2.9-0.4,3.8-0.9c0.7-0.4,1.3-0.8,1.8-1.3c1.2-1,2.2-1.8,4.4-1.8c2.2,0,3.2,0.8,4.4,1.8c0.5,0.4,1.1,0.9,1.8,1.3   c1,0.5,2.2,0.9,3.8,0.9c2.9,0,4.4-1.2,5.7-2.2c0.8-0.6,1.5-1.2,2.4-1.5c0.1-0.7,0.2-1.4,0.3-2.1c-1.8,0.4-2.9,1.2-4,2.1   C63.3,42.4,62.3,43.2,60.1,43.2z M42.8,25.8h14.4v5.7L50,26.8l-7.2,4.7V25.8z"/></g></svg>