<svg xmlns="http://www.w3.org/2000/svg" xmlns:xlink="http://www.w3.org/1999/xlink" version="1.1" x="0px" y="0px" viewBox="0 0 100 95" style="enable-background:new 0 0 100 100;" xml:space="preserve"><style type="text/css">
	.st0{fill:none;stroke:#000000;stroke-width:6;stroke-linejoin:round;stroke-miterlimit:10;}
	.st1{fill:none;stroke:#000000;stroke-miterlimit:10;}
	.st2{fill:#FFFFFF;stroke:#000000;stroke-miterlimit:10;}
	.st3{fill:#FFFFFF;}
	.st4{fill:none;stroke:#FFFFFF;stroke-width:2;stroke-linecap:round;stroke-miterlimit:10;}
	.st5{fill:none;}
	.st6{fill:none;stroke:#000000;stroke-width:2;stroke-miterlimit:10;}
	.st7{fill:none;stroke:#000000;stroke-width:4;stroke-miterlimit:10;}
	.st8{fill:none;stroke:#000000;stroke-width:4;stroke-linecap:round;stroke-miterlimit:10;}
	.st9{fill:none;stroke:#000000;stroke-width:1.5;stroke-linejoin:round;stroke-miterlimit:10;}
	.st10{fill:none;stroke:#000000;stroke-width:1.5;stroke-miterlimit:10;}
	.st11{fill:none;stroke:#231F20;stroke-width:2;stroke-miterlimit:10;}
</style><g><path d="M50,12.3c-14.1,0-25.5,11.4-25.5,25.6c0,3.7,0.8,7.1,2.1,10.3l22,42.7c0.6,1.2,2.2,1.2,2.8,0l22-42.7   c1.4-3.1,2.1-6.6,2.1-10.3C75.5,23.7,64.1,12.3,50,12.3z M50,58.4c-11.4,0-20.7-9.3-20.7-20.7C29.3,26.3,38.6,17,50,17   c11.4,0,20.7,9.3,20.7,20.7C70.7,49.1,61.4,58.4,50,58.4z"/><path d="M50.6,20.6c-0.2-0.2-0.4-0.3-0.6-0.3s-0.5,0.1-0.6,0.3c-0.9,1-1.3,2.3-1.3,3.6v7.2L34.3,42.2v3.3L48,40.2v4.9   c0,0.5,0.1,0.9,0.3,1.3l-4.9,3.3v2.6l6.5-2.6l6.5,2.6v-2.6l-4.9-3.3c0.2-0.4,0.3-0.9,0.3-1.3v-4.9l13.7,5.2v-3.3L52,31.4v-7.2   C52,22.8,51.5,21.6,50.6,20.6"/></g></svg>