<svg xmlns="http://www.w3.org/2000/svg" xmlns:xlink="http://www.w3.org/1999/xlink" version="1.1" x="0px" y="0px" viewBox="0 0 100 95" style="enable-background:new 0 0 100 100;" xml:space="preserve"><style type="text/css">
	.st0{fill:#FFFFFF;}
	.st1{fill:none;}
	.st2{fill:none;stroke:#000000;stroke-width:6;stroke-linejoin:round;stroke-miterlimit:10;}
	.st3{fill:none;stroke:#000000;stroke-miterlimit:10;}
	.st4{fill:#FFFFFF;stroke:#000000;stroke-miterlimit:10;}
	.st5{fill:none;stroke:#FFFFFF;stroke-width:2;stroke-linecap:round;stroke-miterlimit:10;}
	.st6{fill:none;stroke:#000000;stroke-width:2;stroke-miterlimit:10;}
	.st7{fill:none;stroke:#000000;stroke-width:4;stroke-linecap:round;stroke-miterlimit:10;}
</style><path d="M50,12.3c-14.1,0-25.5,11.4-25.5,25.6c0,3.7,0.8,7.1,2.1,10.3l22,42.7c0.6,1.2,2.2,1.2,2.8,0l22-42.7  c1.4-3.1,2.1-6.6,2.1-10.3C75.5,23.7,64.1,12.3,50,12.3z M50,58.4c-11.4,0-20.7-9.3-20.7-20.7S38.6,17,50,17s20.7,9.3,20.7,20.7  S61.4,58.4,50,58.4z"/><circle cx="50" cy="49.2" r="2.5"/><path d="M56.1,45.4c-0.3,0.3-0.7,0.5-1.1,0.5c-0.4,0-0.8-0.2-1.1-0.5c-1-1-2.4-1.6-3.8-1.6c-1.5,0-2.8,0.6-3.8,1.6  c-0.6,0.6-1.6,0.6-2.3,0c-0.6-0.6-0.6-1.6,0-2.3c1.6-1.6,3.8-2.5,6.1-2.5c2.3,0,4.5,0.9,6.1,2.5C56.7,43.7,56.7,44.7,56.1,45.4z"/><path d="M60.9,40.5c-0.3,0.3-0.7,0.5-1.1,0.5c-0.4,0-0.8-0.2-1.1-0.5c-2.3-2.3-5.4-3.6-8.7-3.6s-6.4,1.3-8.7,3.6  c-0.6,0.6-1.6,0.6-2.3,0c-0.6-0.6-0.6-1.6,0-2.3c2.9-2.9,6.8-4.5,10.9-4.5s8,1.6,10.9,4.5C61.6,38.9,61.6,39.9,60.9,40.5z"/><path d="M65.8,35.7c-0.3,0.3-0.7,0.5-1.1,0.5s-0.8-0.2-1.1-0.5c-3.6-3.6-8.4-5.6-13.5-5.6c-5.1,0-9.9,2-13.5,5.6  c-0.6,0.6-1.6,0.6-2.3,0c-0.6-0.6-0.6-1.6,0-2.3c4.2-4.2,9.8-6.5,15.8-6.5c6,0,11.6,2.3,15.8,6.5C66.4,34,66.4,35.1,65.8,35.7z"/></svg>