<svg xmlns="http://www.w3.org/2000/svg" xmlns:xlink="http://www.w3.org/1999/xlink" version="1.1" x="0px" y="0px" viewBox="0 0 100 95" style="enable-background:new 0 0 100 100;" xml:space="preserve"><style type="text/css">
	.st0{fill:none;}
	.st1{fill:#FFFFFF;}
</style><path d="M50,12.3c-14.1,0-25.5,11.4-25.5,25.6c0,3.7,0.8,7.1,2.1,10.3l22,42.7c0.6,1.2,2.2,1.2,2.8,0l22-42.7  c1.4-3.1,2.1-6.6,2.1-10.3C75.5,23.7,64.1,12.3,50,12.3z M50,58.4c-11.4,0-20.7-9.3-20.7-20.7S38.6,17,50,17  c11.4,0,20.7,9.3,20.7,20.7S61.4,58.4,50,58.4z"/><path d="M60.7,30.2c-2.8-2.8-7.4-2.8-10.2,0L50,30.6l-0.4-0.4c-2.8-2.8-7.4-2.8-10.2,0s-2.8,7.4,0,10.2l0.4,0.4c0,0,7.3,6.1,10.2,10  c2.9-3.9,10.2-10,10.2-10l0.4-0.4C63.5,37.6,63.5,33,60.7,30.2z M58.2,38l-0.3,0.3c-0.8,0.7-4.7,4-7.9,7.2c-3.2-3.3-7.1-6.6-7.9-7.2  L41.8,38c-1.5-1.5-1.5-3.8,0-5.3c0.7-0.7,1.6-1.1,2.6-1.1c1,0,1.9,0.4,2.6,1.1l2.9,2.9l2.9-2.9c0.7-0.7,1.6-1.1,2.6-1.1  c1,0,1.9,0.4,2.6,1.1C59.6,34.2,59.6,36.5,58.2,38z"/></svg>