<svg xmlns="http://www.w3.org/2000/svg" xmlns:xlink="http://www.w3.org/1999/xlink" version="1.1" x="0px" y="0px" viewBox="0 0 100 95" style="enable-background:new 0 0 100 100;" xml:space="preserve"><style type="text/css">
	.st0{fill:none;}
	.st1{fill:#FFFFFF;}
</style><path d="M50,92.7c-1,0-1.9-0.6-2.3-1.4l-22-42.7c-1.5-3.4-2.3-7-2.3-10.7c0-14.6,11.9-26.5,26.5-26.5h0c14.6,0,26.5,11.9,26.5,26.5  c0,3.7-0.8,7.3-2.2,10.7l-22,42.8C51.9,92.2,51,92.7,50,92.7z M50,13.3c-13.5,0-24.5,11-24.5,24.5c0,3.4,0.7,6.8,2.1,9.9l22,42.7  c0.1,0.3,0.4,0.3,0.5,0.3c0.1,0,0.4,0,0.5-0.3l22-42.8c1.3-3.1,2-6.4,2-9.8C74.5,24.3,63.5,13.3,50,13.3L50,13.3z M50,51.6  c-7.7,0-13.9-6.2-13.9-13.9S42.3,23.8,50,23.8S63.9,30,63.9,37.7S57.7,51.6,50,51.6z M50,25.8c-6.6,0-11.9,5.3-11.9,11.9  S43.4,49.6,50,49.6s11.9-5.3,11.9-11.9S56.6,25.8,50,25.8z"/></svg>