<svg xmlns="http://www.w3.org/2000/svg" xmlns:xlink="http://www.w3.org/1999/xlink" version="1.1" x="0px" y="0px" viewBox="0 0 100 95" style="enable-background:new 0 0 100 100;" xml:space="preserve"><style type="text/css">
	.st0{fill:none;}
	.st1{fill:#FFFFFF;}
</style><path d="M50,12.3c-14.1,0-25.5,11.4-25.5,25.6c0,3.7,0.8,7.1,2.1,10.3l22,42.7c0.6,1.2,2.2,1.2,2.8,0l22-42.7  c1.4-3.1,2.1-6.6,2.1-10.3C75.5,23.7,64.1,12.3,50,12.3z M50,58.4c-11.4,0-20.7-9.3-20.7-20.7S38.6,17,50,17s20.7,9.3,20.7,20.7  S61.4,58.4,50,58.4z"/><path d="M40.3,43.4l5.8-5.8l-5.8-5.8l4-4l5.8,5.8l5.8-5.8l3.9,3.9l-5.8,5.8l5.8,5.8l-4,4l-5.8-5.8l-5.8,5.8L40.3,43.4z"/></svg>