<svg xmlns="http://www.w3.org/2000/svg" xmlns:xlink="http://www.w3.org/1999/xlink" version="1.1" x="0px" y="0px" viewBox="0 0 100 95" style="enable-background:new 0 0 100 100;" xml:space="preserve"><style type="text/css">
	.st0{fill:none;}
	.st1{fill:#FFFFFF;}
</style><path d="M50,12.3c-14.1,0-25.5,11.4-25.5,25.6c0,3.7,0.8,7.1,2.1,10.3l22,42.7c0.6,1.2,2.2,1.2,2.8,0l22-42.7  c1.4-3.1,2.1-6.6,2.1-10.3C75.5,23.7,64.1,12.3,50,12.3z M65.7,51.2L59.4,45c3.6-4.7,3.2-11.4-1.1-15.7c-4.7-4.7-12.3-4.7-17,0  s-4.7,12.3,0,17c2.3,2.3,5.4,3.5,8.5,3.5c2.3,0,4.7-0.7,6.7-2l6.3,6.3c-3.5,2.8-7.9,4.4-12.8,4.4c-11.4,0-20.7-9.3-20.7-20.7  C29.3,26.3,38.6,17,50,17c11.4,0,20.7,9.3,20.7,20.7C70.7,42.9,68.8,47.6,65.7,51.2z M55.5,43.4c-3.1,3.1-8.2,3.1-11.3,0  c-3.1-3.1-3.1-8.2,0-11.3c1.6-1.6,3.6-2.3,5.7-2.3s4.1,0.8,5.7,2.3C58.6,35.2,58.6,40.3,55.5,43.4z"/></svg>