<svg xmlns="http://www.w3.org/2000/svg" xmlns:xlink="http://www.w3.org/1999/xlink" version="1.1" x="0px" y="0px" viewBox="0 0 100 95" style="enable-background:new 0 0 100 100;" xml:space="preserve"><style type="text/css">
	.st0{fill:none;}
	.st1{fill:#FFFFFF;}
</style><path d="M50,12.3c-14.1,0-25.5,11.4-25.5,25.6c0,3.7,0.8,7.1,2.1,10.3l22,42.7c0.6,1.2,2.2,1.2,2.8,0l22-42.7  c1.4-3.1,2.1-6.6,2.1-10.3C75.5,23.7,64.1,12.3,50,12.3z M50,58.4c-11.4,0-20.7-9.3-20.7-20.7C29.3,26.3,38.6,17,50,17  s20.7,9.3,20.7,20.7C70.7,49.1,61.4,58.4,50,58.4z"/><path d="M44.1,44h11.1c2.7,0,4.9-2.2,4.9-4.9v-1.4c3-0.2,5.3-2.7,5.3-5.8c0-3-2.4-5.5-5.3-5.8v0H39.2v13C39.2,41.8,41.4,44,44.1,44z   M62.5,31.9c0,1.4-1,2.5-2.3,2.7v-5.5C61.4,29.4,62.5,30.5,62.5,31.9z"/><path d="M34.3,46c0,1.5,1.2,2.7,2.7,2.7H63c1.5,0,2.7-1.2,2.7-2.7H34.3z"/></svg>